<svg xmlns="http://www.w3.org/2000/svg" width="780" height="430" viewBox="0 0 780 430">
<rect width="100%" height="100%" fill="#ffffff"/>
<text x="390.0" y="26" text-anchor="middle" font-family="Arial, sans-serif" font-size="18" font-weight="700" fill="#222">Phase 3 Re-grounded Rollout at k=10</text>
<line x1="70" y1="372" x2="625" y2="372" stroke="#222" stroke-width="1.2"/>
<line x1="70" y1="54" x2="70" y2="372" stroke="#222" stroke-width="1.2"/>
<line x1="70" y1="372.0" x2="625" y2="372.0" stroke="#e7e7e7" stroke-width="1"/>
<text x="60" y="376.0" text-anchor="end" font-family="Arial, sans-serif" font-size="12" fill="#555">0.00</text>
<line x1="70" y1="308.4" x2="625" y2="308.4" stroke="#e7e7e7" stroke-width="1"/>
<text x="60" y="312.4" text-anchor="end" font-family="Arial, sans-serif" font-size="12" fill="#555">0.16</text>
<line x1="70" y1="244.8" x2="625" y2="244.8" stroke="#e7e7e7" stroke-width="1"/>
<text x="60" y="248.8" text-anchor="end" font-family="Arial, sans-serif" font-size="12" fill="#555">0.33</text>
<line x1="70" y1="181.2" x2="625" y2="181.2" stroke="#e7e7e7" stroke-width="1"/>
<text x="60" y="185.2" text-anchor="end" font-family="Arial, sans-serif" font-size="12" fill="#555">0.49</text>
<line x1="70" y1="117.6" x2="625" y2="117.6" stroke="#e7e7e7" stroke-width="1"/>
<text x="60" y="121.6" text-anchor="end" font-family="Arial, sans-serif" font-size="12" fill="#555">0.66</text>
<line x1="70" y1="54.0" x2="625" y2="54.0" stroke="#e7e7e7" stroke-width="1"/>
<text x="60" y="58.0" text-anchor="end" font-family="Arial, sans-serif" font-size="12" fill="#555">0.82</text>
<line x1="70.0" y1="372" x2="70.0" y2="377" stroke="#222"/>
<text x="70.0" y="396" text-anchor="middle" font-family="Arial, sans-serif" font-size="12" fill="#555">1</text>
<line x1="131.7" y1="372" x2="131.7" y2="377" stroke="#222"/>
<text x="131.7" y="396" text-anchor="middle" font-family="Arial, sans-serif" font-size="12" fill="#555">2</text>
<line x1="193.3" y1="372" x2="193.3" y2="377" stroke="#222"/>
<text x="193.3" y="396" text-anchor="middle" font-family="Arial, sans-serif" font-size="12" fill="#555">3</text>
<line x1="316.7" y1="372" x2="316.7" y2="377" stroke="#222"/>
<text x="316.7" y="396" text-anchor="middle" font-family="Arial, sans-serif" font-size="12" fill="#555">5</text>
<line x1="625.0" y1="372" x2="625.0" y2="377" stroke="#222"/>
<text x="625.0" y="396" text-anchor="middle" font-family="Arial, sans-serif" font-size="12" fill="#555">10</text>
<text x="347.5" y="414" text-anchor="middle" font-family="Arial, sans-serif" font-size="13" fill="#333">re-ground interval G</text>
<text transform="translate(20 213.0) rotate(-90)" text-anchor="middle" font-family="Arial, sans-serif" font-size="13" fill="#333">MSE</text>
<path d="M70.0,357.4 L131.7,339.3 L193.3,357.4 L316.7,292.1 L625.0,195.1" fill="none" stroke="#1f77b4" stroke-width="2.4"/>
<circle cx="70.0" cy="357.4" r="3.5" fill="#1f77b4"/>
<circle cx="131.7" cy="339.3" r="3.5" fill="#1f77b4"/>
<circle cx="193.3" cy="357.4" r="3.5" fill="#1f77b4"/>
<circle cx="316.7" cy="292.1" r="3.5" fill="#1f77b4"/>
<circle cx="625.0" cy="195.1" r="3.5" fill="#1f77b4"/>
<line x1="649" y1="72" x2="671" y2="72" stroke="#1f77b4" stroke-width="2.4"/>
<text x="679" y="76" font-family="Arial, sans-serif" font-size="13" fill="#333">id</text>
<path d="M70.0,330.2 L131.7,294.1 L193.3,330.2 L316.7,221.2 L625.0,117.5" fill="none" stroke="#d62728" stroke-width="2.4"/>
<circle cx="70.0" cy="330.2" r="3.5" fill="#d62728"/>
<circle cx="131.7" cy="294.1" r="3.5" fill="#d62728"/>
<circle cx="193.3" cy="330.2" r="3.5" fill="#d62728"/>
<circle cx="316.7" cy="221.2" r="3.5" fill="#d62728"/>
<circle cx="625.0" cy="117.5" r="3.5" fill="#d62728"/>
<line x1="649" y1="96" x2="671" y2="96" stroke="#d62728" stroke-width="2.4"/>
<text x="679" y="100" font-family="Arial, sans-serif" font-size="13" fill="#333">visual</text>
<path d="M70.0,347.2 L131.7,320.2 L193.3,347.2 L316.7,232.5 L625.0,77.6" fill="none" stroke="#2ca02c" stroke-width="2.4"/>
<circle cx="70.0" cy="347.2" r="3.5" fill="#2ca02c"/>
<circle cx="131.7" cy="320.2" r="3.5" fill="#2ca02c"/>
<circle cx="193.3" cy="347.2" r="3.5" fill="#2ca02c"/>
<circle cx="316.7" cy="232.5" r="3.5" fill="#2ca02c"/>
<circle cx="625.0" cy="77.6" r="3.5" fill="#2ca02c"/>
<line x1="649" y1="120" x2="671" y2="120" stroke="#2ca02c" stroke-width="2.4"/>
<text x="679" y="124" font-family="Arial, sans-serif" font-size="13" fill="#333">geometry</text>
</svg>