<svg xmlns="http://www.w3.org/2000/svg" width="820" height="430" viewBox="0 0 820 430">
<rect width="100%" height="100%" fill="#fff"/>
<text x="410.0" y="27" text-anchor="middle" font-family="Arial, sans-serif" font-size="18" font-weight="700" fill="#222">Phase 4 Warm Start Ablation (id)</text>
<line x1="72" y1="358" x2="675" y2="358" stroke="#222"/>
<line x1="72" y1="54" x2="72" y2="358" stroke="#222"/>
<line x1="72" y1="358.0" x2="675" y2="358.0" stroke="#e7e7e7"/>
<text x="62" y="362.0" text-anchor="end" font-family="Arial, sans-serif" font-size="12" fill="#555">0</text>
<line x1="72" y1="297.2" x2="675" y2="297.2" stroke="#e7e7e7"/>
<text x="62" y="301.2" text-anchor="end" font-family="Arial, sans-serif" font-size="12" fill="#555">17</text>
<line x1="72" y1="236.4" x2="675" y2="236.4" stroke="#e7e7e7"/>
<text x="62" y="240.4" text-anchor="end" font-family="Arial, sans-serif" font-size="12" fill="#555">34</text>
<line x1="72" y1="175.6" x2="675" y2="175.6" stroke="#e7e7e7"/>
<text x="62" y="179.6" text-anchor="end" font-family="Arial, sans-serif" font-size="12" fill="#555">51</text>
<line x1="72" y1="114.8" x2="675" y2="114.8" stroke="#e7e7e7"/>
<text x="62" y="118.8" text-anchor="end" font-family="Arial, sans-serif" font-size="12" fill="#555">68</text>
<line x1="72" y1="54.0" x2="675" y2="54.0" stroke="#e7e7e7"/>
<text x="62" y="58.0" text-anchor="end" font-family="Arial, sans-serif" font-size="12" fill="#555">85</text>
<text x="172.5" y="388" text-anchor="middle" font-family="Arial, sans-serif" font-size="13" fill="#333">R=1</text>
<rect x="106.5" y="272.1" width="49.0" height="85.9" fill="#1f77b4"/>
<text x="131.0" y="267.1" text-anchor="middle" font-family="Arial, sans-serif" font-size="11" fill="#333">24</text>
<rect x="169.4" y="293.6" width="49.0" height="64.4" fill="#ff7f0e"/>
<text x="193.9" y="288.6" text-anchor="middle" font-family="Arial, sans-serif" font-size="11" fill="#333">18</text>
<text x="373.5" y="388" text-anchor="middle" font-family="Arial, sans-serif" font-size="13" fill="#333">R=3</text>
<rect x="307.5" y="222.0" width="49.0" height="136.0" fill="#1f77b4"/>
<text x="332.0" y="217.0" text-anchor="middle" font-family="Arial, sans-serif" font-size="11" fill="#333">38</text>
<rect x="370.4" y="322.2" width="49.0" height="35.8" fill="#ff7f0e"/>
<text x="394.9" y="317.2" text-anchor="middle" font-family="Arial, sans-serif" font-size="11" fill="#333">10</text>
<text x="574.5" y="388" text-anchor="middle" font-family="Arial, sans-serif" font-size="13" fill="#333">R=5</text>
<rect x="508.5" y="100.4" width="49.0" height="257.6" fill="#1f77b4"/>
<text x="533.0" y="95.4" text-anchor="middle" font-family="Arial, sans-serif" font-size="11" fill="#333">72</text>
<rect x="571.4" y="107.5" width="49.0" height="250.5" fill="#ff7f0e"/>
<text x="595.9" y="102.5" text-anchor="middle" font-family="Arial, sans-serif" font-size="11" fill="#333">70</text>
<text x="373.5" y="415" text-anchor="middle" font-family="Arial, sans-serif" font-size="13" fill="#333">receding horizon R</text>
<text transform="translate(22 206.0) rotate(-90)" text-anchor="middle" font-family="Arial, sans-serif" font-size="13" fill="#333">success rate (%)</text>
<rect x="697" y="65" width="16" height="12" fill="#1f77b4"/>
<text x="721" y="75" font-family="Arial, sans-serif" font-size="13" fill="#333">warm</text>
<rect x="697" y="89" width="16" height="12" fill="#ff7f0e"/>
<text x="721" y="99" font-family="Arial, sans-serif" font-size="13" fill="#333">cold</text>
</svg>