<svg xmlns="http://www.w3.org/2000/svg" width="820" height="430" viewBox="0 0 820 430">
<rect width="100%" height="100%" fill="#fff"/>
<text x="410.0" y="27" text-anchor="middle" font-family="Arial, sans-serif" font-size="18" font-weight="700" fill="#222">Phase 4 Geometry Physical Divergence</text>
<line x1="72" y1="372" x2="650" y2="372" stroke="#222" stroke-width="1.2"/>
<line x1="72" y1="54" x2="72" y2="372" stroke="#222" stroke-width="1.2"/>
<line x1="72" y1="372.0" x2="650" y2="372.0" stroke="#e7e7e7"/>
<text x="62" y="376.0" text-anchor="end" font-family="Arial, sans-serif" font-size="12" fill="#555">0</text>
<line x1="72" y1="308.4" x2="650" y2="308.4" stroke="#e7e7e7"/>
<text x="62" y="312.4" text-anchor="end" font-family="Arial, sans-serif" font-size="12" fill="#555">11</text>
<line x1="72" y1="244.8" x2="650" y2="244.8" stroke="#e7e7e7"/>
<text x="62" y="248.8" text-anchor="end" font-family="Arial, sans-serif" font-size="12" fill="#555">23</text>
<line x1="72" y1="181.2" x2="650" y2="181.2" stroke="#e7e7e7"/>
<text x="62" y="185.2" text-anchor="end" font-family="Arial, sans-serif" font-size="12" fill="#555">34</text>
<line x1="72" y1="117.6" x2="650" y2="117.6" stroke="#e7e7e7"/>
<text x="62" y="121.6" text-anchor="end" font-family="Arial, sans-serif" font-size="12" fill="#555">45</text>
<line x1="72" y1="54.0" x2="650" y2="54.0" stroke="#e7e7e7"/>
<text x="62" y="58.0" text-anchor="end" font-family="Arial, sans-serif" font-size="12" fill="#555">57</text>
<line x1="72.0" y1="372" x2="72.0" y2="377" stroke="#222"/>
<text x="72.0" y="396" text-anchor="middle" font-family="Arial, sans-serif" font-size="12" fill="#555">0</text>
<line x1="129.8" y1="372" x2="129.8" y2="377" stroke="#222"/>
<text x="129.8" y="396" text-anchor="middle" font-family="Arial, sans-serif" font-size="12" fill="#555">5</text>
<line x1="187.6" y1="372" x2="187.6" y2="377" stroke="#222"/>
<text x="187.6" y="396" text-anchor="middle" font-family="Arial, sans-serif" font-size="12" fill="#555">10</text>
<line x1="245.4" y1="372" x2="245.4" y2="377" stroke="#222"/>
<text x="245.4" y="396" text-anchor="middle" font-family="Arial, sans-serif" font-size="12" fill="#555">15</text>
<line x1="303.2" y1="372" x2="303.2" y2="377" stroke="#222"/>
<text x="303.2" y="396" text-anchor="middle" font-family="Arial, sans-serif" font-size="12" fill="#555">20</text>
<line x1="361.0" y1="372" x2="361.0" y2="377" stroke="#222"/>
<text x="361.0" y="396" text-anchor="middle" font-family="Arial, sans-serif" font-size="12" fill="#555">25</text>
<line x1="418.8" y1="372" x2="418.8" y2="377" stroke="#222"/>
<text x="418.8" y="396" text-anchor="middle" font-family="Arial, sans-serif" font-size="12" fill="#555">30</text>
<line x1="534.4" y1="372" x2="534.4" y2="377" stroke="#222"/>
<text x="534.4" y="396" text-anchor="middle" font-family="Arial, sans-serif" font-size="12" fill="#555">40</text>
<line x1="650.0" y1="372" x2="650.0" y2="377" stroke="#222"/>
<text x="650.0" y="396" text-anchor="middle" font-family="Arial, sans-serif" font-size="12" fill="#555">50</text>
<text x="361.0" y="414" text-anchor="middle" font-family="Arial, sans-serif" font-size="13" fill="#333">env step</text>
<text transform="translate(22 213.0) rotate(-90)" text-anchor="middle" font-family="Arial, sans-serif" font-size="13" fill="#333">distance</text>
<path d="M72.0,370.9 L83.6,358.4 L95.1,348.7 L106.7,339.9 L118.2,331.8 L129.8,324.0 L141.4,316.2 L152.9,308.8 L164.5,302.1 L176.0,294.9 L187.6,287.6 L199.2,281.0 L210.7,274.7 L222.3,268.5 L233.8,262.5 L245.4,256.2 L257.0,249.1 L268.5,242.1 L280.1,235.5 L291.6,229.2 L303.2,222.8 L314.8,216.7 L326.3,210.5 L337.9,204.0 L349.4,198.0 L361.0,192.1 L372.6,186.4 L384.1,181.4 L395.7,176.4 L407.2,171.5 L418.8,167.0 L430.4,162.9 L441.9,159.1 L453.5,155.9 L465.0,151.9 L476.6,147.5 L488.2,142.4 L499.7,137.8 L511.3,133.2 L522.8,128.6 L534.4,124.0 L546.0,119.6 L557.5,114.5 L569.1,109.4 L580.6,104.3 L592.2,99.3 L603.8,94.6 L615.3,90.3 L626.9,85.9 L638.4,81.8 L650.0,77.6" fill="none" stroke="#1f77b4" stroke-width="2.4"/>
<circle cx="72.0" cy="370.9" r="3.5" fill="#1f77b4"/>
<circle cx="83.6" cy="358.4" r="3.5" fill="#1f77b4"/>
<circle cx="95.1" cy="348.7" r="3.5" fill="#1f77b4"/>
<circle cx="106.7" cy="339.9" r="3.5" fill="#1f77b4"/>
<circle cx="118.2" cy="331.8" r="3.5" fill="#1f77b4"/>
<circle cx="129.8" cy="324.0" r="3.5" fill="#1f77b4"/>
<circle cx="141.4" cy="316.2" r="3.5" fill="#1f77b4"/>
<circle cx="152.9" cy="308.8" r="3.5" fill="#1f77b4"/>
<circle cx="164.5" cy="302.1" r="3.5" fill="#1f77b4"/>
<circle cx="176.0" cy="294.9" r="3.5" fill="#1f77b4"/>
<circle cx="187.6" cy="287.6" r="3.5" fill="#1f77b4"/>
<circle cx="199.2" cy="281.0" r="3.5" fill="#1f77b4"/>
<circle cx="210.7" cy="274.7" r="3.5" fill="#1f77b4"/>
<circle cx="222.3" cy="268.5" r="3.5" fill="#1f77b4"/>
<circle cx="233.8" cy="262.5" r="3.5" fill="#1f77b4"/>
<circle cx="245.4" cy="256.2" r="3.5" fill="#1f77b4"/>
<circle cx="257.0" cy="249.1" r="3.5" fill="#1f77b4"/>
<circle cx="268.5" cy="242.1" r="3.5" fill="#1f77b4"/>
<circle cx="280.1" cy="235.5" r="3.5" fill="#1f77b4"/>
<circle cx="291.6" cy="229.2" r="3.5" fill="#1f77b4"/>
<circle cx="303.2" cy="222.8" r="3.5" fill="#1f77b4"/>
<circle cx="314.8" cy="216.7" r="3.5" fill="#1f77b4"/>
<circle cx="326.3" cy="210.5" r="3.5" fill="#1f77b4"/>
<circle cx="337.9" cy="204.0" r="3.5" fill="#1f77b4"/>
<circle cx="349.4" cy="198.0" r="3.5" fill="#1f77b4"/>
<circle cx="361.0" cy="192.1" r="3.5" fill="#1f77b4"/>
<circle cx="372.6" cy="186.4" r="3.5" fill="#1f77b4"/>
<circle cx="384.1" cy="181.4" r="3.5" fill="#1f77b4"/>
<circle cx="395.7" cy="176.4" r="3.5" fill="#1f77b4"/>
<circle cx="407.2" cy="171.5" r="3.5" fill="#1f77b4"/>
<circle cx="418.8" cy="167.0" r="3.5" fill="#1f77b4"/>
<circle cx="430.4" cy="162.9" r="3.5" fill="#1f77b4"/>
<circle cx="441.9" cy="159.1" r="3.5" fill="#1f77b4"/>
<circle cx="453.5" cy="155.9" r="3.5" fill="#1f77b4"/>
<circle cx="465.0" cy="151.9" r="3.5" fill="#1f77b4"/>
<circle cx="476.6" cy="147.5" r="3.5" fill="#1f77b4"/>
<circle cx="488.2" cy="142.4" r="3.5" fill="#1f77b4"/>
<circle cx="499.7" cy="137.8" r="3.5" fill="#1f77b4"/>
<circle cx="511.3" cy="133.2" r="3.5" fill="#1f77b4"/>
<circle cx="522.8" cy="128.6" r="3.5" fill="#1f77b4"/>
<circle cx="534.4" cy="124.0" r="3.5" fill="#1f77b4"/>
<circle cx="546.0" cy="119.6" r="3.5" fill="#1f77b4"/>
<circle cx="557.5" cy="114.5" r="3.5" fill="#1f77b4"/>
<circle cx="569.1" cy="109.4" r="3.5" fill="#1f77b4"/>
<circle cx="580.6" cy="104.3" r="3.5" fill="#1f77b4"/>
<circle cx="592.2" cy="99.3" r="3.5" fill="#1f77b4"/>
<circle cx="603.8" cy="94.6" r="3.5" fill="#1f77b4"/>
<circle cx="615.3" cy="90.3" r="3.5" fill="#1f77b4"/>
<circle cx="626.9" cy="85.9" r="3.5" fill="#1f77b4"/>
<circle cx="638.4" cy="81.8" r="3.5" fill="#1f77b4"/>
<circle cx="650.0" cy="77.6" r="3.5" fill="#1f77b4"/>
<line x1="674" y1="72" x2="696" y2="72" stroke="#1f77b4" stroke-width="2.4"/>
<text x="704" y="76" font-family="Arial, sans-serif" font-size="13" fill="#333">block xy L2</text>
<path d="M72.0,370.9 L83.6,358.4 L95.1,348.7 L106.7,339.9 L118.2,331.8 L129.8,323.9 L141.4,316.1 L152.9,308.8 L164.5,302.1 L176.0,294.9 L187.6,287.6 L199.2,280.9 L210.7,274.6 L222.3,268.4 L233.8,262.4 L245.4,256.1 L257.0,249.1 L268.5,242.0 L280.1,235.4 L291.6,229.1 L303.2,222.7 L314.8,216.6 L326.3,210.4 L337.9,203.9 L349.4,197.9 L361.0,192.0 L372.6,186.3 L384.1,181.3 L395.7,176.3 L407.2,171.4 L418.8,166.9 L430.4,162.8 L441.9,159.0 L453.5,155.8 L465.0,151.8 L476.6,147.4 L488.2,142.3 L499.7,137.6 L511.3,133.0 L522.8,128.4 L534.4,123.9 L546.0,119.5 L557.5,114.4 L569.1,109.4 L580.6,104.2 L592.2,99.2 L603.8,94.5 L615.3,90.2 L626.9,85.8 L638.4,81.7 L650.0,77.6" fill="none" stroke="#d62728" stroke-width="2.4"/>
<circle cx="72.0" cy="370.9" r="3.5" fill="#d62728"/>
<circle cx="83.6" cy="358.4" r="3.5" fill="#d62728"/>
<circle cx="95.1" cy="348.7" r="3.5" fill="#d62728"/>
<circle cx="106.7" cy="339.9" r="3.5" fill="#d62728"/>
<circle cx="118.2" cy="331.8" r="3.5" fill="#d62728"/>
<circle cx="129.8" cy="323.9" r="3.5" fill="#d62728"/>
<circle cx="141.4" cy="316.1" r="3.5" fill="#d62728"/>
<circle cx="152.9" cy="308.8" r="3.5" fill="#d62728"/>
<circle cx="164.5" cy="302.1" r="3.5" fill="#d62728"/>
<circle cx="176.0" cy="294.9" r="3.5" fill="#d62728"/>
<circle cx="187.6" cy="287.6" r="3.5" fill="#d62728"/>
<circle cx="199.2" cy="280.9" r="3.5" fill="#d62728"/>
<circle cx="210.7" cy="274.6" r="3.5" fill="#d62728"/>
<circle cx="222.3" cy="268.4" r="3.5" fill="#d62728"/>
<circle cx="233.8" cy="262.4" r="3.5" fill="#d62728"/>
<circle cx="245.4" cy="256.1" r="3.5" fill="#d62728"/>
<circle cx="257.0" cy="249.1" r="3.5" fill="#d62728"/>
<circle cx="268.5" cy="242.0" r="3.5" fill="#d62728"/>
<circle cx="280.1" cy="235.4" r="3.5" fill="#d62728"/>
<circle cx="291.6" cy="229.1" r="3.5" fill="#d62728"/>
<circle cx="303.2" cy="222.7" r="3.5" fill="#d62728"/>
<circle cx="314.8" cy="216.6" r="3.5" fill="#d62728"/>
<circle cx="326.3" cy="210.4" r="3.5" fill="#d62728"/>
<circle cx="337.9" cy="203.9" r="3.5" fill="#d62728"/>
<circle cx="349.4" cy="197.9" r="3.5" fill="#d62728"/>
<circle cx="361.0" cy="192.0" r="3.5" fill="#d62728"/>
<circle cx="372.6" cy="186.3" r="3.5" fill="#d62728"/>
<circle cx="384.1" cy="181.3" r="3.5" fill="#d62728"/>
<circle cx="395.7" cy="176.3" r="3.5" fill="#d62728"/>
<circle cx="407.2" cy="171.4" r="3.5" fill="#d62728"/>
<circle cx="418.8" cy="166.9" r="3.5" fill="#d62728"/>
<circle cx="430.4" cy="162.8" r="3.5" fill="#d62728"/>
<circle cx="441.9" cy="159.0" r="3.5" fill="#d62728"/>
<circle cx="453.5" cy="155.8" r="3.5" fill="#d62728"/>
<circle cx="465.0" cy="151.8" r="3.5" fill="#d62728"/>
<circle cx="476.6" cy="147.4" r="3.5" fill="#d62728"/>
<circle cx="488.2" cy="142.3" r="3.5" fill="#d62728"/>
<circle cx="499.7" cy="137.6" r="3.5" fill="#d62728"/>
<circle cx="511.3" cy="133.0" r="3.5" fill="#d62728"/>
<circle cx="522.8" cy="128.4" r="3.5" fill="#d62728"/>
<circle cx="534.4" cy="123.9" r="3.5" fill="#d62728"/>
<circle cx="546.0" cy="119.5" r="3.5" fill="#d62728"/>
<circle cx="557.5" cy="114.4" r="3.5" fill="#d62728"/>
<circle cx="569.1" cy="109.4" r="3.5" fill="#d62728"/>
<circle cx="580.6" cy="104.2" r="3.5" fill="#d62728"/>
<circle cx="592.2" cy="99.2" r="3.5" fill="#d62728"/>
<circle cx="603.8" cy="94.5" r="3.5" fill="#d62728"/>
<circle cx="615.3" cy="90.2" r="3.5" fill="#d62728"/>
<circle cx="626.9" cy="85.8" r="3.5" fill="#d62728"/>
<circle cx="638.4" cy="81.7" r="3.5" fill="#d62728"/>
<circle cx="650.0" cy="77.6" r="3.5" fill="#d62728"/>
<line x1="674" y1="96" x2="696" y2="96" stroke="#d62728" stroke-width="2.4"/>
<text x="704" y="100" font-family="Arial, sans-serif" font-size="13" fill="#333">pose L2</text>
</svg>