<svg xmlns="http://www.w3.org/2000/svg" width="860" height="520" viewBox="0 0 860 520">
<rect width="100%" height="100%" fill="#ffffff"/>
<text x="74" y="32" font-family="Arial, sans-serif" font-size="22" font-weight="700" fill="#111827">Phase 5 ID: top-1 action agreement frontier</text>
<line x1="74" x2="682" y1="448.00" y2="448.00" stroke="#e5e7eb" stroke-width="1"/>
<text x="64" y="452.00" text-anchor="end" font-family="Arial, sans-serif" font-size="12" fill="#4b5563">0</text>
<line x1="74" x2="682" y1="370.00" y2="370.00" stroke="#e5e7eb" stroke-width="1"/>
<text x="64" y="374.00" text-anchor="end" font-family="Arial, sans-serif" font-size="12" fill="#4b5563">0</text>
<line x1="74" x2="682" y1="292.00" y2="292.00" stroke="#e5e7eb" stroke-width="1"/>
<text x="64" y="296.00" text-anchor="end" font-family="Arial, sans-serif" font-size="12" fill="#4b5563">0</text>
<line x1="74" x2="682" y1="214.00" y2="214.00" stroke="#e5e7eb" stroke-width="1"/>
<text x="64" y="218.00" text-anchor="end" font-family="Arial, sans-serif" font-size="12" fill="#4b5563">1</text>
<line x1="74" x2="682" y1="136.00" y2="136.00" stroke="#e5e7eb" stroke-width="1"/>
<text x="64" y="140.00" text-anchor="end" font-family="Arial, sans-serif" font-size="12" fill="#4b5563">1</text>
<line x1="74" x2="682" y1="58.00" y2="58.00" stroke="#e5e7eb" stroke-width="1"/>
<text x="64" y="62.00" text-anchor="end" font-family="Arial, sans-serif" font-size="12" fill="#4b5563">1</text>
<line x1="74" x2="682" y1="448" y2="448" stroke="#111827" stroke-width="1.4"/>
<line x1="74" x2="74" y1="58" y2="448" stroke="#111827" stroke-width="1.4"/>
<line x1="74.00" x2="74.00" y1="448" y2="454" stroke="#111827"/>
<text x="74.00" y="475" text-anchor="middle" font-family="Arial, sans-serif" font-size="13" fill="#111827">0</text>
<line x1="134.80" x2="134.80" y1="448" y2="454" stroke="#111827"/>
<text x="134.80" y="475" text-anchor="middle" font-family="Arial, sans-serif" font-size="13" fill="#111827">1</text>
<line x1="195.60" x2="195.60" y1="448" y2="454" stroke="#111827"/>
<text x="195.60" y="475" text-anchor="middle" font-family="Arial, sans-serif" font-size="13" fill="#111827">2</text>
<line x1="256.40" x2="256.40" y1="448" y2="454" stroke="#111827"/>
<text x="256.40" y="475" text-anchor="middle" font-family="Arial, sans-serif" font-size="13" fill="#111827">3</text>
<line x1="317.20" x2="317.20" y1="448" y2="454" stroke="#111827"/>
<text x="317.20" y="475" text-anchor="middle" font-family="Arial, sans-serif" font-size="13" fill="#111827">4</text>
<line x1="378.00" x2="378.00" y1="448" y2="454" stroke="#111827"/>
<text x="378.00" y="475" text-anchor="middle" font-family="Arial, sans-serif" font-size="13" fill="#111827">5</text>
<line x1="438.80" x2="438.80" y1="448" y2="454" stroke="#111827"/>
<text x="438.80" y="475" text-anchor="middle" font-family="Arial, sans-serif" font-size="13" fill="#111827">6</text>
<line x1="499.60" x2="499.60" y1="448" y2="454" stroke="#111827"/>
<text x="499.60" y="475" text-anchor="middle" font-family="Arial, sans-serif" font-size="13" fill="#111827">7</text>
<line x1="560.40" x2="560.40" y1="448" y2="454" stroke="#111827"/>
<text x="560.40" y="475" text-anchor="middle" font-family="Arial, sans-serif" font-size="13" fill="#111827">8</text>
<line x1="621.20" x2="621.20" y1="448" y2="454" stroke="#111827"/>
<text x="621.20" y="475" text-anchor="middle" font-family="Arial, sans-serif" font-size="13" fill="#111827">9</text>
<line x1="682.00" x2="682.00" y1="448" y2="454" stroke="#111827"/>
<text x="682.00" y="475" text-anchor="middle" font-family="Arial, sans-serif" font-size="13" fill="#111827">10</text>
<text x="378.0" y="502" text-anchor="middle" font-family="Arial, sans-serif" font-size="14" fill="#111827">latent rollout step k</text>
<text transform="translate(20,253.0) rotate(-90)" text-anchor="middle" font-family="Arial, sans-serif" font-size="14" fill="#111827">top-1 same</text>
<polyline points="74.00,76.57 134.80,143.43 195.60,158.29 256.40,236.29 317.20,225.14 378.00,254.86 438.80,262.29 499.60,295.71 560.40,306.86 621.20,358.86 682.00,422.00" fill="none" stroke="#2563eb" stroke-width="2.6" stroke-linejoin="round" stroke-linecap="round"/>
<circle cx="74.00" cy="76.57" r="4" fill="#2563eb" stroke="#ffffff" stroke-width="1.5"/>
<circle cx="134.80" cy="143.43" r="4" fill="#2563eb" stroke="#ffffff" stroke-width="1.5"/>
<circle cx="195.60" cy="158.29" r="4" fill="#2563eb" stroke="#ffffff" stroke-width="1.5"/>
<circle cx="256.40" cy="236.29" r="4" fill="#2563eb" stroke="#ffffff" stroke-width="1.5"/>
<circle cx="317.20" cy="225.14" r="4" fill="#2563eb" stroke="#ffffff" stroke-width="1.5"/>
<circle cx="378.00" cy="254.86" r="4" fill="#2563eb" stroke="#ffffff" stroke-width="1.5"/>
<circle cx="438.80" cy="262.29" r="4" fill="#2563eb" stroke="#ffffff" stroke-width="1.5"/>
<circle cx="499.60" cy="295.71" r="4" fill="#2563eb" stroke="#ffffff" stroke-width="1.5"/>
<circle cx="560.40" cy="306.86" r="4" fill="#2563eb" stroke="#ffffff" stroke-width="1.5"/>
<circle cx="621.20" cy="358.86" r="4" fill="#2563eb" stroke="#ffffff" stroke-width="1.5"/>
<circle cx="682.00" cy="422.00" r="4" fill="#2563eb" stroke="#ffffff" stroke-width="1.5"/>
<polyline points="74.00,76.57 134.80,150.86 195.60,188.00 256.40,217.71 317.20,236.29 378.00,247.43 438.80,273.43 499.60,288.29 560.40,306.86 621.20,418.29 682.00,440.57" fill="none" stroke="#dc2626" stroke-width="2.6" stroke-linejoin="round" stroke-linecap="round"/>
<circle cx="74.00" cy="76.57" r="4" fill="#dc2626" stroke="#ffffff" stroke-width="1.5"/>
<circle cx="134.80" cy="150.86" r="4" fill="#dc2626" stroke="#ffffff" stroke-width="1.5"/>
<circle cx="195.60" cy="188.00" r="4" fill="#dc2626" stroke="#ffffff" stroke-width="1.5"/>
<circle cx="256.40" cy="217.71" r="4" fill="#dc2626" stroke="#ffffff" stroke-width="1.5"/>
<circle cx="317.20" cy="236.29" r="4" fill="#dc2626" stroke="#ffffff" stroke-width="1.5"/>
<circle cx="378.00" cy="247.43" r="4" fill="#dc2626" stroke="#ffffff" stroke-width="1.5"/>
<circle cx="438.80" cy="273.43" r="4" fill="#dc2626" stroke="#ffffff" stroke-width="1.5"/>
<circle cx="499.60" cy="288.29" r="4" fill="#dc2626" stroke="#ffffff" stroke-width="1.5"/>
<circle cx="560.40" cy="306.86" r="4" fill="#dc2626" stroke="#ffffff" stroke-width="1.5"/>
<circle cx="621.20" cy="418.29" r="4" fill="#dc2626" stroke="#ffffff" stroke-width="1.5"/>
<circle cx="682.00" cy="440.57" r="4" fill="#dc2626" stroke="#ffffff" stroke-width="1.5"/>
<polyline points="74.00,76.57 134.80,169.43 195.60,191.71 256.40,184.29 317.20,217.71 378.00,232.57 438.80,254.86 499.60,288.29 560.40,370.00 621.20,370.00 682.00,410.86" fill="none" stroke="#16a34a" stroke-width="2.6" stroke-linejoin="round" stroke-linecap="round"/>
<circle cx="74.00" cy="76.57" r="4" fill="#16a34a" stroke="#ffffff" stroke-width="1.5"/>
<circle cx="134.80" cy="169.43" r="4" fill="#16a34a" stroke="#ffffff" stroke-width="1.5"/>
<circle cx="195.60" cy="191.71" r="4" fill="#16a34a" stroke="#ffffff" stroke-width="1.5"/>
<circle cx="256.40" cy="184.29" r="4" fill="#16a34a" stroke="#ffffff" stroke-width="1.5"/>
<circle cx="317.20" cy="217.71" r="4" fill="#16a34a" stroke="#ffffff" stroke-width="1.5"/>
<circle cx="378.00" cy="232.57" r="4" fill="#16a34a" stroke="#ffffff" stroke-width="1.5"/>
<circle cx="438.80" cy="254.86" r="4" fill="#16a34a" stroke="#ffffff" stroke-width="1.5"/>
<circle cx="499.60" cy="288.29" r="4" fill="#16a34a" stroke="#ffffff" stroke-width="1.5"/>
<circle cx="560.40" cy="370.00" r="4" fill="#16a34a" stroke="#ffffff" stroke-width="1.5"/>
<circle cx="621.20" cy="370.00" r="4" fill="#16a34a" stroke="#ffffff" stroke-width="1.5"/>
<circle cx="682.00" cy="410.86" r="4" fill="#16a34a" stroke="#ffffff" stroke-width="1.5"/>
<polyline points="74.00,76.57 134.80,173.14 195.60,173.14 256.40,150.86 317.20,169.43 378.00,173.14 438.80,247.43 499.60,318.00 560.40,355.14 621.20,381.14 682.00,396.00" fill="none" stroke="#9333ea" stroke-width="2.6" stroke-linejoin="round" stroke-linecap="round"/>
<circle cx="74.00" cy="76.57" r="4" fill="#9333ea" stroke="#ffffff" stroke-width="1.5"/>
<circle cx="134.80" cy="173.14" r="4" fill="#9333ea" stroke="#ffffff" stroke-width="1.5"/>
<circle cx="195.60" cy="173.14" r="4" fill="#9333ea" stroke="#ffffff" stroke-width="1.5"/>
<circle cx="256.40" cy="150.86" r="4" fill="#9333ea" stroke="#ffffff" stroke-width="1.5"/>
<circle cx="317.20" cy="169.43" r="4" fill="#9333ea" stroke="#ffffff" stroke-width="1.5"/>
<circle cx="378.00" cy="173.14" r="4" fill="#9333ea" stroke="#ffffff" stroke-width="1.5"/>
<circle cx="438.80" cy="247.43" r="4" fill="#9333ea" stroke="#ffffff" stroke-width="1.5"/>
<circle cx="499.60" cy="318.00" r="4" fill="#9333ea" stroke="#ffffff" stroke-width="1.5"/>
<circle cx="560.40" cy="355.14" r="4" fill="#9333ea" stroke="#ffffff" stroke-width="1.5"/>
<circle cx="621.20" cy="381.14" r="4" fill="#9333ea" stroke="#ffffff" stroke-width="1.5"/>
<circle cx="682.00" cy="396.00" r="4" fill="#9333ea" stroke="#ffffff" stroke-width="1.5"/>
<line x1="706" x2="730" y1="68" y2="68" stroke="#2563eb" stroke-width="3"/>
<circle cx="718" cy="68" r="4" fill="#2563eb"/>
<text x="740" y="72" font-family="Arial, sans-serif" font-size="13" fill="#111827">plan H=1</text>
<line x1="706" x2="730" y1="94" y2="94" stroke="#dc2626" stroke-width="3"/>
<circle cx="718" cy="94" r="4" fill="#dc2626"/>
<text x="740" y="98" font-family="Arial, sans-serif" font-size="13" fill="#111827">plan H=2</text>
<line x1="706" x2="730" y1="120" y2="120" stroke="#16a34a" stroke-width="3"/>
<circle cx="718" cy="120" r="4" fill="#16a34a"/>
<text x="740" y="124" font-family="Arial, sans-serif" font-size="13" fill="#111827">plan H=3</text>
<line x1="706" x2="730" y1="146" y2="146" stroke="#9333ea" stroke-width="3"/>
<circle cx="718" cy="146" r="4" fill="#9333ea"/>
<text x="740" y="150" font-family="Arial, sans-serif" font-size="13" fill="#111827">plan H=5</text>
</svg>