<svg xmlns="http://www.w3.org/2000/svg" width="860" height="520" viewBox="0 0 860 520">
<rect width="100%" height="100%" fill="#ffffff"/>
<text x="74" y="32" font-family="Arial, sans-serif" font-size="22" font-weight="700" fill="#111827">Phase 5 ID: final distance vs planning horizon</text>
<line x1="74" x2="682" y1="448.00" y2="448.00" stroke="#e5e7eb" stroke-width="1"/>
<text x="64" y="452.00" text-anchor="end" font-family="Arial, sans-serif" font-size="12" fill="#4b5563">72</text>
<line x1="74" x2="682" y1="370.00" y2="370.00" stroke="#e5e7eb" stroke-width="1"/>
<text x="64" y="374.00" text-anchor="end" font-family="Arial, sans-serif" font-size="12" fill="#4b5563">135</text>
<line x1="74" x2="682" y1="292.00" y2="292.00" stroke="#e5e7eb" stroke-width="1"/>
<text x="64" y="296.00" text-anchor="end" font-family="Arial, sans-serif" font-size="12" fill="#4b5563">197</text>
<line x1="74" x2="682" y1="214.00" y2="214.00" stroke="#e5e7eb" stroke-width="1"/>
<text x="64" y="218.00" text-anchor="end" font-family="Arial, sans-serif" font-size="12" fill="#4b5563">260</text>
<line x1="74" x2="682" y1="136.00" y2="136.00" stroke="#e5e7eb" stroke-width="1"/>
<text x="64" y="140.00" text-anchor="end" font-family="Arial, sans-serif" font-size="12" fill="#4b5563">323</text>
<line x1="74" x2="682" y1="58.00" y2="58.00" stroke="#e5e7eb" stroke-width="1"/>
<text x="64" y="62.00" text-anchor="end" font-family="Arial, sans-serif" font-size="12" fill="#4b5563">385</text>
<line x1="74" x2="682" y1="448" y2="448" stroke="#111827" stroke-width="1.4"/>
<line x1="74" x2="74" y1="58" y2="448" stroke="#111827" stroke-width="1.4"/>
<line x1="74.00" x2="74.00" y1="448" y2="454" stroke="#111827"/>
<text x="74.00" y="475" text-anchor="middle" font-family="Arial, sans-serif" font-size="13" fill="#111827">H=1</text>
<line x1="195.60" x2="195.60" y1="448" y2="454" stroke="#111827"/>
<text x="195.60" y="475" text-anchor="middle" font-family="Arial, sans-serif" font-size="13" fill="#111827">H=2</text>
<line x1="317.20" x2="317.20" y1="448" y2="454" stroke="#111827"/>
<text x="317.20" y="475" text-anchor="middle" font-family="Arial, sans-serif" font-size="13" fill="#111827">H=3</text>
<line x1="438.80" x2="438.80" y1="448" y2="454" stroke="#111827"/>
<text x="438.80" y="475" text-anchor="middle" font-family="Arial, sans-serif" font-size="13" fill="#111827">H=5</text>
<line x1="560.40" x2="560.40" y1="448" y2="454" stroke="#111827"/>
<text x="560.40" y="475" text-anchor="middle" font-family="Arial, sans-serif" font-size="13" fill="#111827">H=8</text>
<line x1="682.00" x2="682.00" y1="448" y2="454" stroke="#111827"/>
<text x="682.00" y="475" text-anchor="middle" font-family="Arial, sans-serif" font-size="13" fill="#111827">H=10</text>
<text x="378.0" y="502" text-anchor="middle" font-family="Arial, sans-serif" font-size="14" fill="#111827">planner horizon H</text>
<text transform="translate(20,253.0) rotate(-90)" text-anchor="middle" font-family="Arial, sans-serif" font-size="14" fill="#111827">mean final full-state L2</text>
<polyline points="74.00,421.25 195.60,420.81 317.20,408.02 438.80,387.53 560.40,386.83 682.00,387.30" fill="none" stroke="#2563eb" stroke-width="2.6" stroke-linejoin="round" stroke-linecap="round"/>
<circle cx="74.00" cy="421.25" r="4" fill="#2563eb" stroke="#ffffff" stroke-width="1.5"/>
<circle cx="195.60" cy="420.81" r="4" fill="#2563eb" stroke="#ffffff" stroke-width="1.5"/>
<circle cx="317.20" cy="408.02" r="4" fill="#2563eb" stroke="#ffffff" stroke-width="1.5"/>
<circle cx="438.80" cy="387.53" r="4" fill="#2563eb" stroke="#ffffff" stroke-width="1.5"/>
<circle cx="560.40" cy="386.83" r="4" fill="#2563eb" stroke="#ffffff" stroke-width="1.5"/>
<circle cx="682.00" cy="387.30" r="4" fill="#2563eb" stroke="#ffffff" stroke-width="1.5"/>
<polyline points="74.00,324.09 195.60,390.75 317.20,366.66 438.80,380.22 560.40,365.85 682.00,386.29" fill="none" stroke="#dc2626" stroke-width="2.6" stroke-linejoin="round" stroke-linecap="round"/>
<circle cx="74.00" cy="324.09" r="4" fill="#dc2626" stroke="#ffffff" stroke-width="1.5"/>
<circle cx="195.60" cy="390.75" r="4" fill="#dc2626" stroke="#ffffff" stroke-width="1.5"/>
<circle cx="317.20" cy="366.66" r="4" fill="#dc2626" stroke="#ffffff" stroke-width="1.5"/>
<circle cx="438.80" cy="380.22" r="4" fill="#dc2626" stroke="#ffffff" stroke-width="1.5"/>
<circle cx="560.40" cy="365.85" r="4" fill="#dc2626" stroke="#ffffff" stroke-width="1.5"/>
<circle cx="682.00" cy="386.29" r="4" fill="#dc2626" stroke="#ffffff" stroke-width="1.5"/>
<polyline points="74.00,260.72 195.60,322.02 317.20,343.17 438.80,385.21 560.40,355.34 682.00,374.59" fill="none" stroke="#16a34a" stroke-width="2.6" stroke-linejoin="round" stroke-linecap="round"/>
<circle cx="74.00" cy="260.72" r="4" fill="#16a34a" stroke="#ffffff" stroke-width="1.5"/>
<circle cx="195.60" cy="322.02" r="4" fill="#16a34a" stroke="#ffffff" stroke-width="1.5"/>
<circle cx="317.20" cy="343.17" r="4" fill="#16a34a" stroke="#ffffff" stroke-width="1.5"/>
<circle cx="438.80" cy="385.21" r="4" fill="#16a34a" stroke="#ffffff" stroke-width="1.5"/>
<circle cx="560.40" cy="355.34" r="4" fill="#16a34a" stroke="#ffffff" stroke-width="1.5"/>
<circle cx="682.00" cy="374.59" r="4" fill="#16a34a" stroke="#ffffff" stroke-width="1.5"/>
<polyline points="74.00,256.80 195.60,295.51 317.20,331.82 438.80,338.47 560.40,354.85 682.00,415.81" fill="none" stroke="#9333ea" stroke-width="2.6" stroke-linejoin="round" stroke-linecap="round"/>
<circle cx="74.00" cy="256.80" r="4" fill="#9333ea" stroke="#ffffff" stroke-width="1.5"/>
<circle cx="195.60" cy="295.51" r="4" fill="#9333ea" stroke="#ffffff" stroke-width="1.5"/>
<circle cx="317.20" cy="331.82" r="4" fill="#9333ea" stroke="#ffffff" stroke-width="1.5"/>
<circle cx="438.80" cy="338.47" r="4" fill="#9333ea" stroke="#ffffff" stroke-width="1.5"/>
<circle cx="560.40" cy="354.85" r="4" fill="#9333ea" stroke="#ffffff" stroke-width="1.5"/>
<circle cx="682.00" cy="415.81" r="4" fill="#9333ea" stroke="#ffffff" stroke-width="1.5"/>
<polyline points="74.00,86.89 195.60,123.51 317.20,223.76 438.80,240.34 560.40,287.32 682.00,299.63" fill="none" stroke="#ea580c" stroke-width="2.6" stroke-linejoin="round" stroke-linecap="round"/>
<circle cx="74.00" cy="86.89" r="4" fill="#ea580c" stroke="#ffffff" stroke-width="1.5"/>
<circle cx="195.60" cy="123.51" r="4" fill="#ea580c" stroke="#ffffff" stroke-width="1.5"/>
<circle cx="317.20" cy="223.76" r="4" fill="#ea580c" stroke="#ffffff" stroke-width="1.5"/>
<circle cx="438.80" cy="240.34" r="4" fill="#ea580c" stroke="#ffffff" stroke-width="1.5"/>
<circle cx="560.40" cy="287.32" r="4" fill="#ea580c" stroke="#ffffff" stroke-width="1.5"/>
<circle cx="682.00" cy="299.63" r="4" fill="#ea580c" stroke="#ffffff" stroke-width="1.5"/>
<line x1="706" x2="730" y1="68" y2="68" stroke="#2563eb" stroke-width="3"/>
<circle cx="718" cy="68" r="4" fill="#2563eb"/>
<text x="740" y="72" font-family="Arial, sans-serif" font-size="13" fill="#111827">goal 5</text>
<line x1="706" x2="730" y1="94" y2="94" stroke="#dc2626" stroke-width="3"/>
<circle cx="718" cy="94" r="4" fill="#dc2626"/>
<text x="740" y="98" font-family="Arial, sans-serif" font-size="13" fill="#111827">goal 10</text>
<line x1="706" x2="730" y1="120" y2="120" stroke="#16a34a" stroke-width="3"/>
<circle cx="718" cy="120" r="4" fill="#16a34a"/>
<text x="740" y="124" font-family="Arial, sans-serif" font-size="13" fill="#111827">goal 15</text>
<line x1="706" x2="730" y1="146" y2="146" stroke="#9333ea" stroke-width="3"/>
<circle cx="718" cy="146" r="4" fill="#9333ea"/>
<text x="740" y="150" font-family="Arial, sans-serif" font-size="13" fill="#111827">goal 25</text>
<line x1="706" x2="730" y1="172" y2="172" stroke="#ea580c" stroke-width="3"/>
<circle cx="718" cy="172" r="4" fill="#ea580c"/>
<text x="740" y="176" font-family="Arial, sans-serif" font-size="13" fill="#111827">goal 50</text>
</svg>