<svg xmlns="http://www.w3.org/2000/svg" width="860" height="520" viewBox="0 0 860 520">
<rect width="100%" height="100%" fill="#ffffff"/>
<text x="74" y="32" font-family="Arial, sans-serif" font-size="22" font-weight="700" fill="#111827">Phase 5 ID: top-5 overlap frontier</text>
<line x1="74" x2="682" y1="448.00" y2="448.00" stroke="#e5e7eb" stroke-width="1"/>
<text x="64" y="452.00" text-anchor="end" font-family="Arial, sans-serif" font-size="12" fill="#4b5563">0</text>
<line x1="74" x2="682" y1="370.00" y2="370.00" stroke="#e5e7eb" stroke-width="1"/>
<text x="64" y="374.00" text-anchor="end" font-family="Arial, sans-serif" font-size="12" fill="#4b5563">0</text>
<line x1="74" x2="682" y1="292.00" y2="292.00" stroke="#e5e7eb" stroke-width="1"/>
<text x="64" y="296.00" text-anchor="end" font-family="Arial, sans-serif" font-size="12" fill="#4b5563">0</text>
<line x1="74" x2="682" y1="214.00" y2="214.00" stroke="#e5e7eb" stroke-width="1"/>
<text x="64" y="218.00" text-anchor="end" font-family="Arial, sans-serif" font-size="12" fill="#4b5563">1</text>
<line x1="74" x2="682" y1="136.00" y2="136.00" stroke="#e5e7eb" stroke-width="1"/>
<text x="64" y="140.00" text-anchor="end" font-family="Arial, sans-serif" font-size="12" fill="#4b5563">1</text>
<line x1="74" x2="682" y1="58.00" y2="58.00" stroke="#e5e7eb" stroke-width="1"/>
<text x="64" y="62.00" text-anchor="end" font-family="Arial, sans-serif" font-size="12" fill="#4b5563">1</text>
<line x1="74" x2="682" y1="448" y2="448" stroke="#111827" stroke-width="1.4"/>
<line x1="74" x2="74" y1="58" y2="448" stroke="#111827" stroke-width="1.4"/>
<line x1="74.00" x2="74.00" y1="448" y2="454" stroke="#111827"/>
<text x="74.00" y="475" text-anchor="middle" font-family="Arial, sans-serif" font-size="13" fill="#111827">0</text>
<line x1="134.80" x2="134.80" y1="448" y2="454" stroke="#111827"/>
<text x="134.80" y="475" text-anchor="middle" font-family="Arial, sans-serif" font-size="13" fill="#111827">1</text>
<line x1="195.60" x2="195.60" y1="448" y2="454" stroke="#111827"/>
<text x="195.60" y="475" text-anchor="middle" font-family="Arial, sans-serif" font-size="13" fill="#111827">2</text>
<line x1="256.40" x2="256.40" y1="448" y2="454" stroke="#111827"/>
<text x="256.40" y="475" text-anchor="middle" font-family="Arial, sans-serif" font-size="13" fill="#111827">3</text>
<line x1="317.20" x2="317.20" y1="448" y2="454" stroke="#111827"/>
<text x="317.20" y="475" text-anchor="middle" font-family="Arial, sans-serif" font-size="13" fill="#111827">4</text>
<line x1="378.00" x2="378.00" y1="448" y2="454" stroke="#111827"/>
<text x="378.00" y="475" text-anchor="middle" font-family="Arial, sans-serif" font-size="13" fill="#111827">5</text>
<line x1="438.80" x2="438.80" y1="448" y2="454" stroke="#111827"/>
<text x="438.80" y="475" text-anchor="middle" font-family="Arial, sans-serif" font-size="13" fill="#111827">6</text>
<line x1="499.60" x2="499.60" y1="448" y2="454" stroke="#111827"/>
<text x="499.60" y="475" text-anchor="middle" font-family="Arial, sans-serif" font-size="13" fill="#111827">7</text>
<line x1="560.40" x2="560.40" y1="448" y2="454" stroke="#111827"/>
<text x="560.40" y="475" text-anchor="middle" font-family="Arial, sans-serif" font-size="13" fill="#111827">8</text>
<line x1="621.20" x2="621.20" y1="448" y2="454" stroke="#111827"/>
<text x="621.20" y="475" text-anchor="middle" font-family="Arial, sans-serif" font-size="13" fill="#111827">9</text>
<line x1="682.00" x2="682.00" y1="448" y2="454" stroke="#111827"/>
<text x="682.00" y="475" text-anchor="middle" font-family="Arial, sans-serif" font-size="13" fill="#111827">10</text>
<text x="378.0" y="502" text-anchor="middle" font-family="Arial, sans-serif" font-size="14" fill="#111827">latent rollout step k</text>
<text transform="translate(20,253.0) rotate(-90)" text-anchor="middle" font-family="Arial, sans-serif" font-size="14" fill="#111827">top-5 overlap</text>
<polyline points="74.00,76.57 134.80,138.23 195.60,151.60 256.40,174.63 317.20,190.23 378.00,199.89 438.80,219.20 499.60,242.97 560.40,260.06 621.20,329.89 682.00,410.11" fill="none" stroke="#2563eb" stroke-width="2.6" stroke-linejoin="round" stroke-linecap="round"/>
<circle cx="74.00" cy="76.57" r="4" fill="#2563eb" stroke="#ffffff" stroke-width="1.5"/>
<circle cx="134.80" cy="138.23" r="4" fill="#2563eb" stroke="#ffffff" stroke-width="1.5"/>
<circle cx="195.60" cy="151.60" r="4" fill="#2563eb" stroke="#ffffff" stroke-width="1.5"/>
<circle cx="256.40" cy="174.63" r="4" fill="#2563eb" stroke="#ffffff" stroke-width="1.5"/>
<circle cx="317.20" cy="190.23" r="4" fill="#2563eb" stroke="#ffffff" stroke-width="1.5"/>
<circle cx="378.00" cy="199.89" r="4" fill="#2563eb" stroke="#ffffff" stroke-width="1.5"/>
<circle cx="438.80" cy="219.20" r="4" fill="#2563eb" stroke="#ffffff" stroke-width="1.5"/>
<circle cx="499.60" cy="242.97" r="4" fill="#2563eb" stroke="#ffffff" stroke-width="1.5"/>
<circle cx="560.40" cy="260.06" r="4" fill="#2563eb" stroke="#ffffff" stroke-width="1.5"/>
<circle cx="621.20" cy="329.89" r="4" fill="#2563eb" stroke="#ffffff" stroke-width="1.5"/>
<circle cx="682.00" cy="410.11" r="4" fill="#2563eb" stroke="#ffffff" stroke-width="1.5"/>
<polyline points="74.00,76.57 134.80,125.60 195.60,150.86 256.40,179.09 317.20,191.71 378.00,219.20 438.80,241.49 499.60,270.46 560.40,279.37 621.20,342.51 682.00,407.89" fill="none" stroke="#dc2626" stroke-width="2.6" stroke-linejoin="round" stroke-linecap="round"/>
<circle cx="74.00" cy="76.57" r="4" fill="#dc2626" stroke="#ffffff" stroke-width="1.5"/>
<circle cx="134.80" cy="125.60" r="4" fill="#dc2626" stroke="#ffffff" stroke-width="1.5"/>
<circle cx="195.60" cy="150.86" r="4" fill="#dc2626" stroke="#ffffff" stroke-width="1.5"/>
<circle cx="256.40" cy="179.09" r="4" fill="#dc2626" stroke="#ffffff" stroke-width="1.5"/>
<circle cx="317.20" cy="191.71" r="4" fill="#dc2626" stroke="#ffffff" stroke-width="1.5"/>
<circle cx="378.00" cy="219.20" r="4" fill="#dc2626" stroke="#ffffff" stroke-width="1.5"/>
<circle cx="438.80" cy="241.49" r="4" fill="#dc2626" stroke="#ffffff" stroke-width="1.5"/>
<circle cx="499.60" cy="270.46" r="4" fill="#dc2626" stroke="#ffffff" stroke-width="1.5"/>
<circle cx="560.40" cy="279.37" r="4" fill="#dc2626" stroke="#ffffff" stroke-width="1.5"/>
<circle cx="621.20" cy="342.51" r="4" fill="#dc2626" stroke="#ffffff" stroke-width="1.5"/>
<circle cx="682.00" cy="407.89" r="4" fill="#dc2626" stroke="#ffffff" stroke-width="1.5"/>
<polyline points="74.00,76.57 134.80,143.43 195.60,173.14 256.40,183.54 317.20,192.46 378.00,227.37 438.80,237.03 499.60,268.23 560.40,297.94 621.20,346.23 682.00,373.71" fill="none" stroke="#16a34a" stroke-width="2.6" stroke-linejoin="round" stroke-linecap="round"/>
<circle cx="74.00" cy="76.57" r="4" fill="#16a34a" stroke="#ffffff" stroke-width="1.5"/>
<circle cx="134.80" cy="143.43" r="4" fill="#16a34a" stroke="#ffffff" stroke-width="1.5"/>
<circle cx="195.60" cy="173.14" r="4" fill="#16a34a" stroke="#ffffff" stroke-width="1.5"/>
<circle cx="256.40" cy="183.54" r="4" fill="#16a34a" stroke="#ffffff" stroke-width="1.5"/>
<circle cx="317.20" cy="192.46" r="4" fill="#16a34a" stroke="#ffffff" stroke-width="1.5"/>
<circle cx="378.00" cy="227.37" r="4" fill="#16a34a" stroke="#ffffff" stroke-width="1.5"/>
<circle cx="438.80" cy="237.03" r="4" fill="#16a34a" stroke="#ffffff" stroke-width="1.5"/>
<circle cx="499.60" cy="268.23" r="4" fill="#16a34a" stroke="#ffffff" stroke-width="1.5"/>
<circle cx="560.40" cy="297.94" r="4" fill="#16a34a" stroke="#ffffff" stroke-width="1.5"/>
<circle cx="621.20" cy="346.23" r="4" fill="#16a34a" stroke="#ffffff" stroke-width="1.5"/>
<circle cx="682.00" cy="373.71" r="4" fill="#16a34a" stroke="#ffffff" stroke-width="1.5"/>
<polyline points="74.00,76.57 134.80,139.71 195.60,170.91 256.40,172.40 317.20,184.29 378.00,209.54 438.80,235.54 499.60,274.17 560.40,307.60 621.20,325.43 682.00,347.71" fill="none" stroke="#9333ea" stroke-width="2.6" stroke-linejoin="round" stroke-linecap="round"/>
<circle cx="74.00" cy="76.57" r="4" fill="#9333ea" stroke="#ffffff" stroke-width="1.5"/>
<circle cx="134.80" cy="139.71" r="4" fill="#9333ea" stroke="#ffffff" stroke-width="1.5"/>
<circle cx="195.60" cy="170.91" r="4" fill="#9333ea" stroke="#ffffff" stroke-width="1.5"/>
<circle cx="256.40" cy="172.40" r="4" fill="#9333ea" stroke="#ffffff" stroke-width="1.5"/>
<circle cx="317.20" cy="184.29" r="4" fill="#9333ea" stroke="#ffffff" stroke-width="1.5"/>
<circle cx="378.00" cy="209.54" r="4" fill="#9333ea" stroke="#ffffff" stroke-width="1.5"/>
<circle cx="438.80" cy="235.54" r="4" fill="#9333ea" stroke="#ffffff" stroke-width="1.5"/>
<circle cx="499.60" cy="274.17" r="4" fill="#9333ea" stroke="#ffffff" stroke-width="1.5"/>
<circle cx="560.40" cy="307.60" r="4" fill="#9333ea" stroke="#ffffff" stroke-width="1.5"/>
<circle cx="621.20" cy="325.43" r="4" fill="#9333ea" stroke="#ffffff" stroke-width="1.5"/>
<circle cx="682.00" cy="347.71" r="4" fill="#9333ea" stroke="#ffffff" stroke-width="1.5"/>
<line x1="706" x2="730" y1="68" y2="68" stroke="#2563eb" stroke-width="3"/>
<circle cx="718" cy="68" r="4" fill="#2563eb"/>
<text x="740" y="72" font-family="Arial, sans-serif" font-size="13" fill="#111827">plan H=1</text>
<line x1="706" x2="730" y1="94" y2="94" stroke="#dc2626" stroke-width="3"/>
<circle cx="718" cy="94" r="4" fill="#dc2626"/>
<text x="740" y="98" font-family="Arial, sans-serif" font-size="13" fill="#111827">plan H=2</text>
<line x1="706" x2="730" y1="120" y2="120" stroke="#16a34a" stroke-width="3"/>
<circle cx="718" cy="120" r="4" fill="#16a34a"/>
<text x="740" y="124" font-family="Arial, sans-serif" font-size="13" fill="#111827">plan H=3</text>
<line x1="706" x2="730" y1="146" y2="146" stroke="#9333ea" stroke-width="3"/>
<circle cx="718" cy="146" r="4" fill="#9333ea"/>
<text x="740" y="150" font-family="Arial, sans-serif" font-size="13" fill="#111827">plan H=5</text>
</svg>