<svg xmlns="http://www.w3.org/2000/svg" width="860" height="520" viewBox="0 0 860 520">
<rect width="100%" height="100%" fill="#ffffff"/>
<text x="74" y="32" font-family="Arial, sans-serif" font-size="22" font-weight="700" fill="#111827">Phase 5 ID: closest distance vs planning horizon</text>
<line x1="74" x2="682" y1="448.00" y2="448.00" stroke="#e5e7eb" stroke-width="1"/>
<text x="64" y="452.00" text-anchor="end" font-family="Arial, sans-serif" font-size="12" fill="#4b5563">47</text>
<line x1="74" x2="682" y1="370.00" y2="370.00" stroke="#e5e7eb" stroke-width="1"/>
<text x="64" y="374.00" text-anchor="end" font-family="Arial, sans-serif" font-size="12" fill="#4b5563">68</text>
<line x1="74" x2="682" y1="292.00" y2="292.00" stroke="#e5e7eb" stroke-width="1"/>
<text x="64" y="296.00" text-anchor="end" font-family="Arial, sans-serif" font-size="12" fill="#4b5563">89</text>
<line x1="74" x2="682" y1="214.00" y2="214.00" stroke="#e5e7eb" stroke-width="1"/>
<text x="64" y="218.00" text-anchor="end" font-family="Arial, sans-serif" font-size="12" fill="#4b5563">111</text>
<line x1="74" x2="682" y1="136.00" y2="136.00" stroke="#e5e7eb" stroke-width="1"/>
<text x="64" y="140.00" text-anchor="end" font-family="Arial, sans-serif" font-size="12" fill="#4b5563">132</text>
<line x1="74" x2="682" y1="58.00" y2="58.00" stroke="#e5e7eb" stroke-width="1"/>
<text x="64" y="62.00" text-anchor="end" font-family="Arial, sans-serif" font-size="12" fill="#4b5563">153</text>
<line x1="74" x2="682" y1="448" y2="448" stroke="#111827" stroke-width="1.4"/>
<line x1="74" x2="74" y1="58" y2="448" stroke="#111827" stroke-width="1.4"/>
<line x1="74.00" x2="74.00" y1="448" y2="454" stroke="#111827"/>
<text x="74.00" y="475" text-anchor="middle" font-family="Arial, sans-serif" font-size="13" fill="#111827">H=1</text>
<line x1="195.60" x2="195.60" y1="448" y2="454" stroke="#111827"/>
<text x="195.60" y="475" text-anchor="middle" font-family="Arial, sans-serif" font-size="13" fill="#111827">H=2</text>
<line x1="317.20" x2="317.20" y1="448" y2="454" stroke="#111827"/>
<text x="317.20" y="475" text-anchor="middle" font-family="Arial, sans-serif" font-size="13" fill="#111827">H=3</text>
<line x1="438.80" x2="438.80" y1="448" y2="454" stroke="#111827"/>
<text x="438.80" y="475" text-anchor="middle" font-family="Arial, sans-serif" font-size="13" fill="#111827">H=5</text>
<line x1="560.40" x2="560.40" y1="448" y2="454" stroke="#111827"/>
<text x="560.40" y="475" text-anchor="middle" font-family="Arial, sans-serif" font-size="13" fill="#111827">H=8</text>
<line x1="682.00" x2="682.00" y1="448" y2="454" stroke="#111827"/>
<text x="682.00" y="475" text-anchor="middle" font-family="Arial, sans-serif" font-size="13" fill="#111827">H=10</text>
<text x="378.0" y="502" text-anchor="middle" font-family="Arial, sans-serif" font-size="14" fill="#111827">planner horizon H</text>
<text transform="translate(20,253.0) rotate(-90)" text-anchor="middle" font-family="Arial, sans-serif" font-size="14" fill="#111827">mean best full-state L2</text>
<polyline points="74.00,417.72 195.60,421.25 317.20,414.24 438.80,419.84 560.40,399.69 682.00,401.78" fill="none" stroke="#2563eb" stroke-width="2.6" stroke-linejoin="round" stroke-linecap="round"/>
<circle cx="74.00" cy="417.72" r="4" fill="#2563eb" stroke="#ffffff" stroke-width="1.5"/>
<circle cx="195.60" cy="421.25" r="4" fill="#2563eb" stroke="#ffffff" stroke-width="1.5"/>
<circle cx="317.20" cy="414.24" r="4" fill="#2563eb" stroke="#ffffff" stroke-width="1.5"/>
<circle cx="438.80" cy="419.84" r="4" fill="#2563eb" stroke="#ffffff" stroke-width="1.5"/>
<circle cx="560.40" cy="399.69" r="4" fill="#2563eb" stroke="#ffffff" stroke-width="1.5"/>
<circle cx="682.00" cy="401.78" r="4" fill="#2563eb" stroke="#ffffff" stroke-width="1.5"/>
<polyline points="74.00,260.31 195.60,373.96 317.20,390.04 438.80,409.34 560.40,397.16 682.00,393.59" fill="none" stroke="#dc2626" stroke-width="2.6" stroke-linejoin="round" stroke-linecap="round"/>
<circle cx="74.00" cy="260.31" r="4" fill="#dc2626" stroke="#ffffff" stroke-width="1.5"/>
<circle cx="195.60" cy="373.96" r="4" fill="#dc2626" stroke="#ffffff" stroke-width="1.5"/>
<circle cx="317.20" cy="390.04" r="4" fill="#dc2626" stroke="#ffffff" stroke-width="1.5"/>
<circle cx="438.80" cy="409.34" r="4" fill="#dc2626" stroke="#ffffff" stroke-width="1.5"/>
<circle cx="560.40" cy="397.16" r="4" fill="#dc2626" stroke="#ffffff" stroke-width="1.5"/>
<circle cx="682.00" cy="393.59" r="4" fill="#dc2626" stroke="#ffffff" stroke-width="1.5"/>
<polyline points="74.00,218.40 195.60,345.35 317.20,375.68 438.80,378.18 560.40,397.25 682.00,371.63" fill="none" stroke="#16a34a" stroke-width="2.6" stroke-linejoin="round" stroke-linecap="round"/>
<circle cx="74.00" cy="218.40" r="4" fill="#16a34a" stroke="#ffffff" stroke-width="1.5"/>
<circle cx="195.60" cy="345.35" r="4" fill="#16a34a" stroke="#ffffff" stroke-width="1.5"/>
<circle cx="317.20" cy="375.68" r="4" fill="#16a34a" stroke="#ffffff" stroke-width="1.5"/>
<circle cx="438.80" cy="378.18" r="4" fill="#16a34a" stroke="#ffffff" stroke-width="1.5"/>
<circle cx="560.40" cy="397.25" r="4" fill="#16a34a" stroke="#ffffff" stroke-width="1.5"/>
<circle cx="682.00" cy="371.63" r="4" fill="#16a34a" stroke="#ffffff" stroke-width="1.5"/>
<polyline points="74.00,270.24 195.60,298.14 317.20,337.84 438.80,370.64 560.40,370.59 682.00,401.96" fill="none" stroke="#9333ea" stroke-width="2.6" stroke-linejoin="round" stroke-linecap="round"/>
<circle cx="74.00" cy="270.24" r="4" fill="#9333ea" stroke="#ffffff" stroke-width="1.5"/>
<circle cx="195.60" cy="298.14" r="4" fill="#9333ea" stroke="#ffffff" stroke-width="1.5"/>
<circle cx="317.20" cy="337.84" r="4" fill="#9333ea" stroke="#ffffff" stroke-width="1.5"/>
<circle cx="438.80" cy="370.64" r="4" fill="#9333ea" stroke="#ffffff" stroke-width="1.5"/>
<circle cx="560.40" cy="370.59" r="4" fill="#9333ea" stroke="#ffffff" stroke-width="1.5"/>
<circle cx="682.00" cy="401.96" r="4" fill="#9333ea" stroke="#ffffff" stroke-width="1.5"/>
<polyline points="74.00,86.89 195.60,183.75 317.20,230.50 438.80,249.23 560.40,261.68 682.00,251.03" fill="none" stroke="#ea580c" stroke-width="2.6" stroke-linejoin="round" stroke-linecap="round"/>
<circle cx="74.00" cy="86.89" r="4" fill="#ea580c" stroke="#ffffff" stroke-width="1.5"/>
<circle cx="195.60" cy="183.75" r="4" fill="#ea580c" stroke="#ffffff" stroke-width="1.5"/>
<circle cx="317.20" cy="230.50" r="4" fill="#ea580c" stroke="#ffffff" stroke-width="1.5"/>
<circle cx="438.80" cy="249.23" r="4" fill="#ea580c" stroke="#ffffff" stroke-width="1.5"/>
<circle cx="560.40" cy="261.68" r="4" fill="#ea580c" stroke="#ffffff" stroke-width="1.5"/>
<circle cx="682.00" cy="251.03" r="4" fill="#ea580c" stroke="#ffffff" stroke-width="1.5"/>
<line x1="706" x2="730" y1="68" y2="68" stroke="#2563eb" stroke-width="3"/>
<circle cx="718" cy="68" r="4" fill="#2563eb"/>
<text x="740" y="72" font-family="Arial, sans-serif" font-size="13" fill="#111827">goal 5</text>
<line x1="706" x2="730" y1="94" y2="94" stroke="#dc2626" stroke-width="3"/>
<circle cx="718" cy="94" r="4" fill="#dc2626"/>
<text x="740" y="98" font-family="Arial, sans-serif" font-size="13" fill="#111827">goal 10</text>
<line x1="706" x2="730" y1="120" y2="120" stroke="#16a34a" stroke-width="3"/>
<circle cx="718" cy="120" r="4" fill="#16a34a"/>
<text x="740" y="124" font-family="Arial, sans-serif" font-size="13" fill="#111827">goal 15</text>
<line x1="706" x2="730" y1="146" y2="146" stroke="#9333ea" stroke-width="3"/>
<circle cx="718" cy="146" r="4" fill="#9333ea"/>
<text x="740" y="150" font-family="Arial, sans-serif" font-size="13" fill="#111827">goal 25</text>
<line x1="706" x2="730" y1="172" y2="172" stroke="#ea580c" stroke-width="3"/>
<circle cx="718" cy="172" r="4" fill="#ea580c"/>
<text x="740" y="176" font-family="Arial, sans-serif" font-size="13" fill="#111827">goal 50</text>
</svg>