<svg xmlns="http://www.w3.org/2000/svg" width="860" height="520" viewBox="0 0 860 520">
<rect width="100%" height="100%" fill="#ffffff"/>
<text x="74" y="32" font-family="Arial, sans-serif" font-size="22" font-weight="700" fill="#111827">Phase 5 ID: true-cost regret frontier</text>
<line x1="74" x2="682" y1="448.00" y2="448.00" stroke="#e5e7eb" stroke-width="1"/>
<text x="64" y="452.00" text-anchor="end" font-family="Arial, sans-serif" font-size="12" fill="#4b5563">-3</text>
<line x1="74" x2="682" y1="370.00" y2="370.00" stroke="#e5e7eb" stroke-width="1"/>
<text x="64" y="374.00" text-anchor="end" font-family="Arial, sans-serif" font-size="12" fill="#4b5563">6</text>
<line x1="74" x2="682" y1="292.00" y2="292.00" stroke="#e5e7eb" stroke-width="1"/>
<text x="64" y="296.00" text-anchor="end" font-family="Arial, sans-serif" font-size="12" fill="#4b5563">14</text>
<line x1="74" x2="682" y1="214.00" y2="214.00" stroke="#e5e7eb" stroke-width="1"/>
<text x="64" y="218.00" text-anchor="end" font-family="Arial, sans-serif" font-size="12" fill="#4b5563">23</text>
<line x1="74" x2="682" y1="136.00" y2="136.00" stroke="#e5e7eb" stroke-width="1"/>
<text x="64" y="140.00" text-anchor="end" font-family="Arial, sans-serif" font-size="12" fill="#4b5563">31</text>
<line x1="74" x2="682" y1="58.00" y2="58.00" stroke="#e5e7eb" stroke-width="1"/>
<text x="64" y="62.00" text-anchor="end" font-family="Arial, sans-serif" font-size="12" fill="#4b5563">40</text>
<line x1="74" x2="682" y1="448" y2="448" stroke="#111827" stroke-width="1.4"/>
<line x1="74" x2="74" y1="58" y2="448" stroke="#111827" stroke-width="1.4"/>
<line x1="74.00" x2="74.00" y1="448" y2="454" stroke="#111827"/>
<text x="74.00" y="475" text-anchor="middle" font-family="Arial, sans-serif" font-size="13" fill="#111827">0</text>
<line x1="134.80" x2="134.80" y1="448" y2="454" stroke="#111827"/>
<text x="134.80" y="475" text-anchor="middle" font-family="Arial, sans-serif" font-size="13" fill="#111827">1</text>
<line x1="195.60" x2="195.60" y1="448" y2="454" stroke="#111827"/>
<text x="195.60" y="475" text-anchor="middle" font-family="Arial, sans-serif" font-size="13" fill="#111827">2</text>
<line x1="256.40" x2="256.40" y1="448" y2="454" stroke="#111827"/>
<text x="256.40" y="475" text-anchor="middle" font-family="Arial, sans-serif" font-size="13" fill="#111827">3</text>
<line x1="317.20" x2="317.20" y1="448" y2="454" stroke="#111827"/>
<text x="317.20" y="475" text-anchor="middle" font-family="Arial, sans-serif" font-size="13" fill="#111827">4</text>
<line x1="378.00" x2="378.00" y1="448" y2="454" stroke="#111827"/>
<text x="378.00" y="475" text-anchor="middle" font-family="Arial, sans-serif" font-size="13" fill="#111827">5</text>
<line x1="438.80" x2="438.80" y1="448" y2="454" stroke="#111827"/>
<text x="438.80" y="475" text-anchor="middle" font-family="Arial, sans-serif" font-size="13" fill="#111827">6</text>
<line x1="499.60" x2="499.60" y1="448" y2="454" stroke="#111827"/>
<text x="499.60" y="475" text-anchor="middle" font-family="Arial, sans-serif" font-size="13" fill="#111827">7</text>
<line x1="560.40" x2="560.40" y1="448" y2="454" stroke="#111827"/>
<text x="560.40" y="475" text-anchor="middle" font-family="Arial, sans-serif" font-size="13" fill="#111827">8</text>
<line x1="621.20" x2="621.20" y1="448" y2="454" stroke="#111827"/>
<text x="621.20" y="475" text-anchor="middle" font-family="Arial, sans-serif" font-size="13" fill="#111827">9</text>
<line x1="682.00" x2="682.00" y1="448" y2="454" stroke="#111827"/>
<text x="682.00" y="475" text-anchor="middle" font-family="Arial, sans-serif" font-size="13" fill="#111827">10</text>
<text x="378.0" y="502" text-anchor="middle" font-family="Arial, sans-serif" font-size="14" fill="#111827">latent rollout step k</text>
<text transform="translate(20,253.0) rotate(-90)" text-anchor="middle" font-family="Arial, sans-serif" font-size="14" fill="#111827">true-cost regret</text>
<polyline points="74.00,421.25 134.80,412.42 195.60,400.37 256.40,391.97 317.20,362.78 378.00,318.71 438.80,333.15 499.60,268.51 560.40,291.12 621.20,286.27 682.00,295.67" fill="none" stroke="#2563eb" stroke-width="2.6" stroke-linejoin="round" stroke-linecap="round"/>
<circle cx="74.00" cy="421.25" r="4" fill="#2563eb" stroke="#ffffff" stroke-width="1.5"/>
<circle cx="134.80" cy="412.42" r="4" fill="#2563eb" stroke="#ffffff" stroke-width="1.5"/>
<circle cx="195.60" cy="400.37" r="4" fill="#2563eb" stroke="#ffffff" stroke-width="1.5"/>
<circle cx="256.40" cy="391.97" r="4" fill="#2563eb" stroke="#ffffff" stroke-width="1.5"/>
<circle cx="317.20" cy="362.78" r="4" fill="#2563eb" stroke="#ffffff" stroke-width="1.5"/>
<circle cx="378.00" cy="318.71" r="4" fill="#2563eb" stroke="#ffffff" stroke-width="1.5"/>
<circle cx="438.80" cy="333.15" r="4" fill="#2563eb" stroke="#ffffff" stroke-width="1.5"/>
<circle cx="499.60" cy="268.51" r="4" fill="#2563eb" stroke="#ffffff" stroke-width="1.5"/>
<circle cx="560.40" cy="291.12" r="4" fill="#2563eb" stroke="#ffffff" stroke-width="1.5"/>
<circle cx="621.20" cy="286.27" r="4" fill="#2563eb" stroke="#ffffff" stroke-width="1.5"/>
<circle cx="682.00" cy="295.67" r="4" fill="#2563eb" stroke="#ffffff" stroke-width="1.5"/>
<polyline points="74.00,421.25 134.80,413.29 195.60,391.48 256.40,366.95 317.20,333.97 378.00,303.19 438.80,190.85 499.60,109.97 560.40,116.72 621.20,138.24 682.00,117.69" fill="none" stroke="#dc2626" stroke-width="2.6" stroke-linejoin="round" stroke-linecap="round"/>
<circle cx="74.00" cy="421.25" r="4" fill="#dc2626" stroke="#ffffff" stroke-width="1.5"/>
<circle cx="134.80" cy="413.29" r="4" fill="#dc2626" stroke="#ffffff" stroke-width="1.5"/>
<circle cx="195.60" cy="391.48" r="4" fill="#dc2626" stroke="#ffffff" stroke-width="1.5"/>
<circle cx="256.40" cy="366.95" r="4" fill="#dc2626" stroke="#ffffff" stroke-width="1.5"/>
<circle cx="317.20" cy="333.97" r="4" fill="#dc2626" stroke="#ffffff" stroke-width="1.5"/>
<circle cx="378.00" cy="303.19" r="4" fill="#dc2626" stroke="#ffffff" stroke-width="1.5"/>
<circle cx="438.80" cy="190.85" r="4" fill="#dc2626" stroke="#ffffff" stroke-width="1.5"/>
<circle cx="499.60" cy="109.97" r="4" fill="#dc2626" stroke="#ffffff" stroke-width="1.5"/>
<circle cx="560.40" cy="116.72" r="4" fill="#dc2626" stroke="#ffffff" stroke-width="1.5"/>
<circle cx="621.20" cy="138.24" r="4" fill="#dc2626" stroke="#ffffff" stroke-width="1.5"/>
<circle cx="682.00" cy="117.69" r="4" fill="#dc2626" stroke="#ffffff" stroke-width="1.5"/>
<polyline points="74.00,421.25 134.80,399.59 195.60,362.21 256.40,357.30 317.20,257.50 378.00,185.76 438.80,181.36 499.60,149.12 560.40,137.59 621.20,188.22 682.00,194.45" fill="none" stroke="#16a34a" stroke-width="2.6" stroke-linejoin="round" stroke-linecap="round"/>
<circle cx="74.00" cy="421.25" r="4" fill="#16a34a" stroke="#ffffff" stroke-width="1.5"/>
<circle cx="134.80" cy="399.59" r="4" fill="#16a34a" stroke="#ffffff" stroke-width="1.5"/>
<circle cx="195.60" cy="362.21" r="4" fill="#16a34a" stroke="#ffffff" stroke-width="1.5"/>
<circle cx="256.40" cy="357.30" r="4" fill="#16a34a" stroke="#ffffff" stroke-width="1.5"/>
<circle cx="317.20" cy="257.50" r="4" fill="#16a34a" stroke="#ffffff" stroke-width="1.5"/>
<circle cx="378.00" cy="185.76" r="4" fill="#16a34a" stroke="#ffffff" stroke-width="1.5"/>
<circle cx="438.80" cy="181.36" r="4" fill="#16a34a" stroke="#ffffff" stroke-width="1.5"/>
<circle cx="499.60" cy="149.12" r="4" fill="#16a34a" stroke="#ffffff" stroke-width="1.5"/>
<circle cx="560.40" cy="137.59" r="4" fill="#16a34a" stroke="#ffffff" stroke-width="1.5"/>
<circle cx="621.20" cy="188.22" r="4" fill="#16a34a" stroke="#ffffff" stroke-width="1.5"/>
<circle cx="682.00" cy="194.45" r="4" fill="#16a34a" stroke="#ffffff" stroke-width="1.5"/>
<polyline points="74.00,421.25 134.80,377.55 195.60,328.62 256.40,312.25 317.20,277.12 378.00,266.03 438.80,193.76 499.60,88.61 560.40,86.89 621.20,157.07 682.00,207.01" fill="none" stroke="#9333ea" stroke-width="2.6" stroke-linejoin="round" stroke-linecap="round"/>
<circle cx="74.00" cy="421.25" r="4" fill="#9333ea" stroke="#ffffff" stroke-width="1.5"/>
<circle cx="134.80" cy="377.55" r="4" fill="#9333ea" stroke="#ffffff" stroke-width="1.5"/>
<circle cx="195.60" cy="328.62" r="4" fill="#9333ea" stroke="#ffffff" stroke-width="1.5"/>
<circle cx="256.40" cy="312.25" r="4" fill="#9333ea" stroke="#ffffff" stroke-width="1.5"/>
<circle cx="317.20" cy="277.12" r="4" fill="#9333ea" stroke="#ffffff" stroke-width="1.5"/>
<circle cx="378.00" cy="266.03" r="4" fill="#9333ea" stroke="#ffffff" stroke-width="1.5"/>
<circle cx="438.80" cy="193.76" r="4" fill="#9333ea" stroke="#ffffff" stroke-width="1.5"/>
<circle cx="499.60" cy="88.61" r="4" fill="#9333ea" stroke="#ffffff" stroke-width="1.5"/>
<circle cx="560.40" cy="86.89" r="4" fill="#9333ea" stroke="#ffffff" stroke-width="1.5"/>
<circle cx="621.20" cy="157.07" r="4" fill="#9333ea" stroke="#ffffff" stroke-width="1.5"/>
<circle cx="682.00" cy="207.01" r="4" fill="#9333ea" stroke="#ffffff" stroke-width="1.5"/>
<line x1="706" x2="730" y1="68" y2="68" stroke="#2563eb" stroke-width="3"/>
<circle cx="718" cy="68" r="4" fill="#2563eb"/>
<text x="740" y="72" font-family="Arial, sans-serif" font-size="13" fill="#111827">plan H=1</text>
<line x1="706" x2="730" y1="94" y2="94" stroke="#dc2626" stroke-width="3"/>
<circle cx="718" cy="94" r="4" fill="#dc2626"/>
<text x="740" y="98" font-family="Arial, sans-serif" font-size="13" fill="#111827">plan H=2</text>
<line x1="706" x2="730" y1="120" y2="120" stroke="#16a34a" stroke-width="3"/>
<circle cx="718" cy="120" r="4" fill="#16a34a"/>
<text x="740" y="124" font-family="Arial, sans-serif" font-size="13" fill="#111827">plan H=3</text>
<line x1="706" x2="730" y1="146" y2="146" stroke="#9333ea" stroke-width="3"/>
<circle cx="718" cy="146" r="4" fill="#9333ea"/>
<text x="740" y="150" font-family="Arial, sans-serif" font-size="13" fill="#111827">plan H=5</text>
</svg>